<svg xmlns="http://www.w3.org/2000/svg" viewBox="0 0 48 48" fill="none">
  <g stroke="#bd6f73" stroke-width="1.7" stroke-linecap="round" stroke-linejoin="round">
    <path d="M27.7 45.2c-.2-7.6-1.1-14.9-4.2-22.2"/>
    <path d="M23.5 23c-4.8-.2-8.1-3.1-8.2-7.1-.1-3.2 2.4-5.7 5.6-5.5 1.6-3.8 7.3-5.3 10.9-2.6 4 3 4.4 8.4.9 11.7-2.4 2.3-5.4 3.5-9.2 3.5Z"/>
    <path d="M20.7 10.5c1.6.4 3.1 1.5 4 3 1.1-2.5 4.1-4.3 7-3.8"/>
    <path d="M16.8 15.1c3.9-.7 7.2 1.1 8.7 4.6 1.2-3.2 4.7-5.4 8.5-5"/>
    <path d="M26.5 34.9c-4.1-4.1-8.9-4.2-12.1-.8 3.6 3.7 8.1 4.3 12.1 1.5"/>
    <path d="M27.2 39.3c3.1-3.8 7.3-4.4 10.4-1.8-2.9 3.6-6.7 4.5-10.3 2.5"/>
  </g>
</svg>
